<?xml version="1.0" standalone="no"?>
<!DOCTYPE svg PUBLIC "-//W3C//DTD SVG 20010904//EN"
 "http://www.w3.org/TR/2001/REC-SVG-20010904/DTD/svg10.dtd">
<svg version="1.0" xmlns="http://www.w3.org/2000/svg"
 width="222.000000pt" height="222.000000pt" viewBox="0 0 222.000000 222.000000"
 preserveAspectRatio="xMidYMid meet">
<metadata>
Created by potrace 1.11, written by Peter Selinger 2001-2013
</metadata>
<g transform="translate(0.000000,222.000000) scale(0.100000,-0.100000)"
fill="#000000" stroke="none">
<path d="M101 1729 c-14 -9 -43 -35 -63 -57 l-38 -42 0 -519 0 -518 30 -38
c43 -54 78 -85 98 -85 9 -1 167 -1 350 -2 332 0 332 0 366 23 65 44 69 62 70
268 l1 185 27 15 c34 20 28 25 231 -209 233 -269 242 -278 294 -286 80 -12
104 7 329 258 177 197 209 228 234 228 l29 0 -1 -235 c0 -130 2 -239 6 -242 6
-7 133 -6 144 1 4 2 7 112 6 243 -1 213 -3 243 -19 269 -27 43 -76 94 -107
110 -33 17 -105 18 -135 1 -13 -6 -97 -102 -189 -212 -210 -253 -239 -285
-259 -285 -21 0 -59 38 -243 249 -131 150 -152 179 -152 208 0 26 4 33 20 33
16 0 20 -7 21 -32 l2 -33 6 30 c4 22 12 30 29 31 20 1 22 -3 22 -44 0 -57 9
-50 14 9 l3 45 -67 1 -66 2 4 -32 4 -32 -21 22 c-23 24 -28 38 -9 27 7 -5 8
-3 4 5 -5 7 -14 10 -22 7 -7 -3 -16 -1 -19 4 -4 6 0 10 8 10 17 0 59 43 184
190 54 64 135 159 181 213 73 85 85 96 102 87 11 -6 20 -17 20 -25 0 -12 14
-15 64 -15 72 0 80 8 62 60 -16 46 -43 78 -88 101 -74 38 -136 19 -215 -64
-55 -59 -237 -275 -298 -354 -46 -60 -70 -72 -94 -49 -14 15 -16 46 -14 256
l1 240 -69 0 -69 0 0 -251 c0 -210 3 -257 16 -285 18 -39 87 -104 109 -104 27
0 16 -15 -12 -16 -16 -1 -38 -4 -50 -7 -13 -3 -25 -2 -28 4 -4 5 -11 9 -16 9
-6 0 -7 -4 -4 -10 3 -5 2 -10 -4 -10 -5 0 -12 6 -15 13 -5 10 -7 10 -12 0 -3
-7 -10 -13 -15 -13 -6 0 -7 5 -4 10 9 14 -8 12 -24 -2 -11 -10 -13 -10 -7 0 4
6 2 12 -3 12 -6 0 -11 -4 -11 -10 0 -5 -5 -10 -11 -10 -5 0 -7 5 -4 10 3 6 2
10 -4 10 -5 0 -13 -4 -16 -10 -3 -5 -12 -10 -18 -10 -7 0 -6 4 3 10 13 8 13
10 -1 10 -9 0 -19 -3 -23 -7 -10 -11 -37 -12 -30 -2 7 12 -3 11 -26 -1 -13 -7
-21 -7 -25 0 -5 8 -12 7 -23 -2 -12 -10 -14 -10 -8 0 8 14 -3 16 -23 3 -9 -6
-21 -5 -32 2 -13 8 -22 7 -35 -4 -11 -9 -15 -9 -10 -1 4 6 2 12 -3 12 -6 0
-11 -4 -11 -10 0 -5 -5 -10 -11 -10 -5 0 -7 5 -4 10 9 14 -8 12 -24 -2 -11
-10 -13 -10 -7 0 4 6 2 12 -3 12 -6 0 -11 -4 -11 -10 0 -5 -5 -10 -11 -10 -5
0 -7 5 -4 10 9 14 -8 12 -24 -2 -11 -10 -13 -10 -7 0 4 6 2 12 -3 12 -6 0 -11
-4 -11 -10 0 -5 -5 -10 -11 -10 -5 0 -7 5 -4 10 9 14 -8 12 -24 -2 -11 -10
-13 -10 -7 0 4 6 2 12 -3 12 -6 0 -11 -4 -11 -10 0 -5 -5 -10 -11 -10 -5 0 -7
5 -4 10 3 6 2 10 -4 10 -5 0 -13 -4 -16 -10 -3 -5 -12 -10 -18 -10 -7 0 -6 4
3 10 13 8 13 10 -1 10 -9 0 -19 -3 -23 -7 -10 -10 -37 -13 -31 -3 3 5 0 10 -5
12 -15 5 -15 475 0 493 8 9 71 12 253 13 133 0 248 1 255 1 10 1 12 19 10 68
l-3 67 -264 0 c-224 1 -268 -1 -290 -15z m708 -731 c-8 -15 -12 -81 -12 -195
0 -113 -4 -176 -11 -182 -16 -14 -5 347 12 377 16 29 26 29 11 0z"/>
<path d="M1482 1208 l-2 -108 -32 -1 c-18 -1 -45 -2 -60 -2 -22 0 -25 -3 -17
-14 6 -7 9 -24 7 -38 -3 -14 -2 -25 3 -25 4 0 9 15 11 33 4 42 31 43 39 2 l6
-30 2 33 c1 25 5 32 21 32 18 0 20 -8 23 -117 l3 -118 2 116 2 116 83 -1 82
-1 1 33 c1 18 -2 30 -5 27 -3 -4 -6 -16 -6 -27 0 -25 -31 -33 -40 -10 -6 16
-7 16 -16 0 -14 -25 -43 -15 -50 18 l-7 29 -1 -32 c-1 -26 -4 -30 -21 -26 -17
5 -20 16 -23 112 l-3 106 -2 -107z"/>
<path d="M1758 1144 c-2 -33 -7 -48 -15 -46 -7 1 -13 -2 -13 -8 0 -5 10 -8 22
-7 20 4 22 9 19 53 -4 65 -9 68 -13 8z"/>
<path d="M1711 1128 c-1 -25 -10 -33 -33 -29 -5 0 -8 -3 -8 -9 0 -5 10 -8 23
-6 23 3 32 23 24 54 -3 10 -5 6 -6 -10z"/>
<path d="M1830 1126 c0 -14 -5 -26 -12 -26 -26 0 2 -12 36 -15 42 -4 45 0 35
40 l-7 30 -1 -32 c-1 -26 -4 -30 -22 -26 -14 4 -19 12 -16 24 3 11 1 22 -4 25
-5 3 -9 -6 -9 -20z"/>
<path d="M1252 1086 c7 -6 12 -22 11 -36 -1 -19 0 -20 4 -5 3 11 9 24 14 30
15 15 10 21 -17 21 -20 0 -23 -2 -12 -10z"/>
<path d="M1306 1089 c6 -10 44 -7 44 3 0 4 -11 7 -24 6 -14 -1 -23 -6 -20 -9z"/>
<path d="M1910 1089 c0 -5 5 -7 10 -4 6 3 10 8 10 11 0 2 -4 4 -10 4 -5 0 -10
-5 -10 -11z"/>
<path d="M1315 1049 c6 -32 13 -34 13 -4 0 14 -4 25 -9 25 -4 0 -6 -10 -4 -21z"/>
</g>
</svg>
